<?xml version="1.0" encoding="utf-8"?>
<!-- Generator: Adobe Illustrator 22.0.0, SVG Export Plug-In . SVG Version: 6.00 Build 0)  -->
<svg version="1.1" id="Capa_1" xmlns="http://www.w3.org/2000/svg" xmlns:xlink="http://www.w3.org/1999/xlink" x="0px" y="0px"
	 viewBox="0 0 624.3 127.9" style="enable-background:new 0 0 624.3 127.9;" xml:space="preserve">
<style type="text/css">
	.st0{display:none;}
	.st1{fill:#FFFFFF;}
	.st2{clip-path:url(#SVGID_2_);}
	.st3{fill:none;}
	.st4{fill:none;stroke:#000000;}
	.st5{fill:#B32B2D;}
	.st6{fill:#F5C547;}
	.st7{fill:#399637;}
	.st8{clip-path:url(#SVGID_4_);}
</style>
<g id="Capa_1_1_" class="st0">
	
		<image style="display:inline;overflow:visible;enable-background:new    ;" width="122" height="122" xlink:href="spaom-logo-122x122.png"  transform="matrix(1 0 0 1 4 2.8898)">
	</image>
</g>
<g>
	<g>
		<path class="st1" d="M159.2,97.7h-8.1l-1,3.5h-6.7l8-24.2h7.5l8,24.2h-6.7L159.2,97.7z M157.6,92.3l-2.5-8.2l-2.4,8.2H157.6z"/>
		<path class="st1" d="M185.8,77v24.2h-5.7v-1.6c-1.1,1.3-2.7,2.1-4.9,2.1c-4.6,0-8.1-3.9-8.1-9.1s3.5-9.1,8.1-9.1
			c2.2,0,3.8,0.8,4.9,2.1V77H185.8z M180.1,92.5c0-2.2-1.5-3.8-3.6-3.8s-3.6,1.5-3.6,3.8c0,2.2,1.5,3.8,3.6,3.8
			S180.1,94.8,180.1,92.5z"/>
		<path class="st1" d="M206.7,83.9l-6.5,17.3H194l-6.5-17.3h6.4l3.2,9.9l3.2-9.9C200.3,83.9,206.7,83.9,206.7,83.9z"/>
		<path class="st1" d="M225.5,83.9v17.3h-5.7v-1.6c-1.1,1.3-2.7,2.1-4.9,2.1c-4.6,0-8.1-3.9-8.1-9.1s3.5-9.1,8.1-9.1
			c2.2,0,3.8,0.8,4.9,2.1V84L225.5,83.9L225.5,83.9z M219.7,92.5c0-2.2-1.5-3.8-3.6-3.8s-3.6,1.5-3.6,3.8c0,2.2,1.5,3.8,3.6,3.8
			S219.7,94.8,219.7,92.5z"/>
		<path class="st1" d="M245.7,90.8v10.3H240v-9.6c0-1.9-1.1-2.7-2.6-2.7c-1.8,0-2.8,1.1-2.8,3.1v9.2h-5.7V83.9h5.7v1.7
			c1-1.4,2.7-2.2,4.8-2.2C242.9,83.4,245.7,85.8,245.7,90.8z"/>
		<path class="st1" d="M247.9,92.5c0-5.2,3.9-9.1,9.2-9.1c3.4,0,6.4,1.8,7.9,4.5l-4.9,2.8c-0.6-1-1.7-1.7-3-1.7
			c-1.9,0-3.4,1.5-3.4,3.5c0,2.1,1.5,3.5,3.4,3.5c1.3,0,2.5-0.7,3-1.7l4.9,2.8c-1.5,2.7-4.5,4.5-7.9,4.5
			C251.9,101.6,247.9,97.7,247.9,92.5z"/>
		<path class="st1" d="M275.5,96.7c1.2,0,2.3-0.4,3.1-1.2l4.1,2.9c-1.7,2.2-4.4,3.2-7.4,3.2c-6,0-9.7-4-9.7-9.1
			c0-5.2,3.8-9.2,9.2-9.2c5.2,0,8.9,3.9,8.9,9.1c0,0.7-0.1,1.4-0.2,2.1h-11.9C272.3,96.3,273.8,96.7,275.5,96.7z M278.2,90.6
			c-0.5-1.8-1.9-2.4-3.2-2.4c-1.7,0-2.9,0.8-3.4,2.4H278.2z"/>
		<path class="st1" d="M304.1,77v24.2h-5.7v-1.6c-1.1,1.3-2.7,2.1-4.9,2.1c-4.6,0-8.1-3.9-8.1-9.1s3.5-9.1,8.1-9.1
			c2.2,0,3.8,0.8,4.9,2.1V77H304.1z M298.4,92.5c0-2.2-1.5-3.8-3.6-3.8s-3.6,1.5-3.6,3.8c0,2.2,1.5,3.8,3.6,3.8
			S298.4,94.8,298.4,92.5z"/>
		<path class="st1" d="M314.6,89.1c0-7.1,5.6-12.6,12.7-12.6S340,82,340,89.1s-5.6,12.6-12.7,12.6S314.6,96.2,314.6,89.1z
			 M333.8,89.1c0-3.9-2.8-6.6-6.5-6.6s-6.5,2.7-6.5,6.6s2.8,6.6,6.5,6.6S333.8,92.9,333.8,89.1z"/>
		<path class="st1" d="M361.3,92.5c0,5.2-3.5,9.1-8.1,9.1c-2.2,0-3.8-0.8-4.9-2.1v8.5h-5.7V83.9h5.7v1.6c1.1-1.3,2.7-2.1,4.9-2.1
			C357.9,83.4,361.3,87.3,361.3,92.5z M355.6,92.5c0-2.2-1.5-3.8-3.6-3.8s-3.6,1.5-3.6,3.8c0,2.2,1.5,3.8,3.6,3.8
			S355.6,94.8,355.6,92.5z"/>
		<path class="st1" d="M370.6,89.4v5c0,1.6,1.3,1.7,3.6,1.6v5.2c-7.1,0.9-9.3-1.3-9.3-6.6v-5.1h-2.6V84h2.6v-3.1l5.7-1.7V84h3.6v5.5
			h-3.6V89.4z"/>
		<path class="st1" d="M376.4,79.1c0-1.8,1.5-3.3,3.3-3.3s3.3,1.5,3.3,3.3s-1.5,3.3-3.3,3.3S376.4,80.9,376.4,79.1z M376.9,83.9h5.7
			v17.3h-5.7V83.9z"/>
		<path class="st1" d="M385.1,92.5c0-5.2,3.9-9.1,9.2-9.1c3.4,0,6.4,1.8,7.9,4.5l-4.9,2.8c-0.6-1-1.7-1.7-3-1.7
			c-1.9,0-3.4,1.5-3.4,3.5c0,2.1,1.5,3.5,3.4,3.5c1.3,0,2.5-0.7,3-1.7l4.9,2.8c-1.5,2.7-4.5,4.5-7.9,4.5
			C389,101.6,385.1,97.7,385.1,92.5z"/>
		<path class="st1" d="M421.6,83.9v17.3h-5.7v-1.6c-1.1,1.3-2.7,2.1-4.9,2.1c-4.6,0-8.1-3.9-8.1-9.1s3.5-9.1,8.1-9.1
			c2.2,0,3.8,0.8,4.9,2.1V84L421.6,83.9L421.6,83.9z M415.8,92.5c0-2.2-1.5-3.8-3.6-3.8s-3.6,1.5-3.6,3.8c0,2.2,1.5,3.8,3.6,3.8
			S415.8,94.8,415.8,92.5z"/>
		<path class="st1" d="M424.9,75.9h5.7v25.2h-5.7V75.9z"/>
		<path class="st1" d="M466.7,101.2h-6.2v-13l-5.9,9.7H454l-5.8-9.7v13H442V77h6.2l6.2,10.3l6.2-10.3h6.2v24.2H466.7z"/>
		<path class="st1" d="M469.9,79.1c0-1.8,1.5-3.3,3.3-3.3s3.3,1.5,3.3,3.3s-1.5,3.3-3.3,3.3S469.9,80.9,469.9,79.1z M470.3,83.9h5.7
			v17.3h-5.7V83.9z"/>
		<path class="st1" d="M478.5,92.5c0-5.2,3.9-9.1,9.2-9.1c3.4,0,6.4,1.8,7.9,4.5l-4.9,2.8c-0.6-1-1.7-1.7-3-1.7
			c-1.9,0-3.4,1.5-3.4,3.5c0,2.1,1.5,3.5,3.4,3.5c1.3,0,2.5-0.7,3-1.7l4.9,2.8c-1.5,2.7-4.5,4.5-7.9,4.5
			C482.4,101.6,478.5,97.7,478.5,92.5z"/>
		<path class="st1" d="M508.3,83.5v6.4c-2.3-0.3-5.2,0.7-5.2,4.1v7.2h-5.7V83.9h5.7v3.2C503.8,84.7,506,83.5,508.3,83.5z"/>
		<path class="st1" d="M509.2,92.5c0-5.2,4.1-9.1,9.2-9.1c5.1,0,9.2,4,9.2,9.1s-4.1,9.1-9.2,9.1C513.4,101.6,509.2,97.7,509.2,92.5z
			 M522,92.5c0-2.1-1.5-3.6-3.5-3.6s-3.5,1.5-3.5,3.6s1.5,3.6,3.5,3.6S522,94.7,522,92.5z"/>
		<path class="st1" d="M543.9,95.8c0,4.3-3.9,5.8-7.5,5.8s-6.4-1.2-7.7-4.1l5-2.5c0.5,1.3,1.3,1.9,2.7,1.9c1,0,1.6-0.3,1.6-0.9
			c0-1.8-8.4-0.7-8.4-6.8c0-3.9,3.4-5.8,6.9-5.8c3.1,0,5.7,1.2,7.1,4l-4.8,2.2c-0.5-1-1.2-1.5-2.1-1.5c-0.8,0-1.3,0.3-1.3,0.8
			C535.3,90.8,543.9,89.3,543.9,95.8z"/>
		<path class="st1" d="M545.2,92.5c0-5.2,3.9-9.1,9.2-9.1c3.4,0,6.4,1.8,7.9,4.5l-4.9,2.8c-0.6-1-1.7-1.7-3-1.7
			c-1.9,0-3.4,1.5-3.4,3.5c0,2.1,1.5,3.5,3.4,3.5c1.3,0,2.5-0.7,3-1.7l4.9,2.8c-1.5,2.7-4.5,4.5-7.9,4.5
			C549.2,101.6,545.2,97.7,545.2,92.5z"/>
		<path class="st1" d="M563,92.5c0-5.2,4.1-9.1,9.2-9.1c5.1,0,9.2,4,9.2,9.1s-4.1,9.1-9.2,9.1S563,97.7,563,92.5z M575.7,92.5
			c0-2.1-1.5-3.6-3.5-3.6s-3.5,1.5-3.5,3.6s1.5,3.6,3.5,3.6S575.7,94.7,575.7,92.5z"/>
		<path class="st1" d="M602.7,92.5c0,5.2-3.5,9.1-8.1,9.1c-2.2,0-3.8-0.8-4.9-2.1v8.5H584V83.9h5.7v1.6c1.1-1.3,2.7-2.1,4.9-2.1
			C599.2,83.4,602.7,87.3,602.7,92.5z M596.9,92.5c0-2.2-1.5-3.8-3.6-3.8s-3.6,1.5-3.6,3.8c0,2.2,1.5,3.8,3.6,3.8
			S596.9,94.8,596.9,92.5z"/>
		<path class="st1" d="M621.8,83.9l-5.9,17c-1.8,5.3-5.1,7.4-10.4,7.2v-5.4c2.5,0,3.5-0.5,4.3-2.1l-6.9-16.7h6.4l3.5,10l2.7-10
			C615.5,83.9,621.8,83.9,621.8,83.9z"/>
	</g>
	<g>
		<path class="st1" d="M144.8,54.3l2.8-1.6c0.9,2.7,2.9,4.4,6.5,4.4c3.4,0,5.1-1.6,5.1-3.7c0-2.5-2.1-3.3-5.7-4.4
			c-3.9-1.2-7.6-2.5-7.6-6.9s3.6-6.8,7.6-6.8s6.8,2.2,8.2,5.3L159,42c-0.9-2.1-2.6-3.7-5.5-3.7c-2.6,0-4.4,1.4-4.4,3.6
			c0,2.2,1.7,3.1,5.1,4.1c4.2,1.4,8.2,2.6,8.2,7.3c0,4.3-3.4,6.9-8.4,6.9C149.4,60.2,146.1,57.9,144.8,54.3z"/>
		<path class="st1" d="M184.1,51.1c0,5.1-3.9,9.1-8.7,9.1c-2.9,0-5.2-1.3-6.5-3.4v9.9h-3V42.5h3v3c1.4-2.1,3.6-3.4,6.5-3.4
			C180.2,42,184.1,46,184.1,51.1z M181.1,51.1c0-3.5-2.7-6.2-6.1-6.2c-3.5,0-6.2,2.7-6.2,6.2s2.7,6.2,6.2,6.2
			C178.4,57.3,181.1,54.7,181.1,51.1z"/>
		<path class="st1" d="M205,42.5v17.3h-3v-3c-1.4,2.1-3.6,3.4-6.5,3.4c-4.8,0-8.7-4-8.7-9.1s3.9-9.1,8.7-9.1c2.9,0,5.1,1.3,6.5,3.4
			v-3L205,42.5L205,42.5z M202,51.1c0-3.5-2.7-6.2-6.2-6.2s-6.1,2.7-6.1,6.2s2.7,6.2,6.1,6.2C199.4,57.3,202,54.7,202,51.1z"/>
		<path class="st1" d="M224.9,49.2v10.6h-3V49.3c0-2.8-1.6-4.4-4.3-4.4c-2.8,0-5,1.6-5,5.7v9.2h-3V42.5h3V45c1.3-2,3.2-2.9,5.6-2.9
			C222.2,42,224.9,44.7,224.9,49.2z"/>
		<path class="st1" d="M228.6,37.3c0-1.1,0.9-2,2-2s2,0.9,2,2s-0.9,2-2,2S228.6,38.4,228.6,37.3z M229.1,42.5h3v17.3h-3V42.5z"/>
		<path class="st1" d="M248.9,55c0,3.2-2.8,5.2-6.5,5.2c-3.5,0-5.9-1.7-6.9-4l2.6-1.5c0.6,1.7,2.1,2.7,4.3,2.7
			c1.8,0,3.4-0.7,3.4-2.4c0-3.7-9.7-1.6-9.7-7.8c0-3,2.6-5.1,6.1-5.1c2.8,0,5.1,1.3,6.2,3.6l-2.5,1.4c-0.7-1.6-2.2-2.2-3.7-2.2
			c-1.6,0-3.1,0.8-3.1,2.3C239.3,50.9,248.9,48.7,248.9,55z"/>
		<path class="st1" d="M267.6,49.2v10.6h-3V49.3c0-2.8-1.6-4.4-4.3-4.4c-2.8,0-5,1.6-5,5.7v9.2h-3V35.6h3V45c1.3-2,3.2-2.9,5.6-2.9
			C265,42,267.6,44.7,267.6,49.2z"/>
		<path class="st1" d="M297.6,60.3l-2.5-2.6c-1.7,1.6-3.9,2.5-6.9,2.5c-4.8,0-8.1-2.7-8.1-7c0-2.9,1.5-5.5,4.4-7
			c-0.9-1.1-1.6-2.5-1.6-4.4c0-4.1,3.4-6.7,7.1-6.7c3.2,0,6,1.8,7.2,4.9l-2.7,1.6c-0.7-2.1-2.4-3.4-4.5-3.4c-2.2,0-4,1.4-4,3.6
			c0,1.7,0.9,2.8,2.1,4.1l6.6,7.1c0.6-1.2,1-2.7,1.2-4.4l2.8,1.6c-0.3,1.8-0.9,3.6-1.9,5.1l3.2,3.4L297.6,60.3z M293,55.5l-6.5-7
			c-2.4,1-3.2,2.9-3.2,4.6c0,2.6,1.8,4.1,5,4.1C290.2,57.2,291.8,56.6,293,55.5z"/>
		<path class="st1" d="M328.9,43.4c0,4.4-3.4,7.8-7.8,7.8h-5.6v8.6h-3.2V35.6h8.8C325.5,35.6,328.9,38.9,328.9,43.4z M325.7,43.4
			c0-2.8-2-4.8-4.6-4.8h-5.6v9.5h5.6C323.7,48.1,325.7,46.1,325.7,43.4z"/>
		<path class="st1" d="M330.1,51.1c0-5.1,4-9.1,9.1-9.1s9.1,4,9.1,9.1s-4.1,9.1-9.1,9.1S330.1,56.2,330.1,51.1z M345.3,51.1
			c0-3.5-2.7-6.2-6.1-6.2s-6.1,2.7-6.1,6.2s2.7,6.2,6.1,6.2C342.6,57.3,345.3,54.6,345.3,51.1z"/>
		<path class="st1" d="M360.3,42.2v3.1c-2.6-0.1-5.4,1.2-5.4,5.3v9.2h-3V42.5h3v2.9C356,43,358.1,42.2,360.3,42.2z"/>
		<path class="st1" d="M368.4,45.4v9.4c0,2.6,1.5,2.5,4.6,2.3v2.7c-5.2,0.7-7.6-0.7-7.6-5v-9.4H362v-2.9h3.4v-3.9l3-0.9v4.8h4.6v2.9
			C373,45.4,368.4,45.4,368.4,45.4z"/>
		<path class="st1" d="M391.6,42.5v17.3h-3v-2.5c-1.3,2-3.2,2.9-5.6,2.9c-4,0-6.7-2.7-6.7-7.1V42.5h3v10.4c0,2.8,1.6,4.4,4.3,4.4
			c2.8,0,5-1.6,5-5.7v-9.2L391.6,42.5L391.6,42.5z"/>
		<path class="st1" d="M413.5,42.5V59c0,5.4-4.3,8.1-8.8,8.1c-3.9,0-6.8-1.5-8.2-4.2l2.6-1.5c0.8,1.6,2.2,2.9,5.6,2.9
			c3.6,0,5.8-2,5.8-5.3v-2.5c-1.4,2.1-3.6,3.5-6.5,3.5c-4.9,0-8.8-4-8.8-9s3.9-9,8.8-9c2.9,0,5.1,1.3,6.5,3.4v-3h3V42.5z M410.5,51
			c0-3.5-2.7-6.1-6.2-6.1s-6.2,2.7-6.2,6.1c0,3.5,2.7,6.2,6.2,6.2C407.9,57.2,410.5,54.5,410.5,51z"/>
		<path class="st1" d="M433,42.5v17.3h-3v-2.5c-1.3,2-3.2,2.9-5.6,2.9c-4,0-6.7-2.7-6.7-7.1V42.5h3v10.4c0,2.8,1.6,4.4,4.3,4.4
			c2.8,0,5-1.6,5-5.7v-9.2L433,42.5L433,42.5z"/>
		<path class="st1" d="M445.9,57.4c2.4,0,4.1-1.1,5-2.5l2.6,1.5c-1.5,2.3-4.1,3.9-7.6,3.9c-5.6,0-9.3-3.9-9.3-9.1
			c0-5.1,3.7-9.1,9.1-9.1c5.2,0,8.6,4.3,8.6,9.1c0,0.4,0,0.9-0.1,1.3h-14.5C440.3,55.6,442.7,57.4,445.9,57.4z M439.7,49.9h11.5
			c-0.5-3.4-3-5-5.6-5C442.4,44.9,440.2,46.9,439.7,49.9z"/>
		<path class="st1" d="M469.3,55c0,3.2-2.8,5.2-6.5,5.2c-3.5,0-5.9-1.7-6.9-4l2.6-1.5c0.6,1.7,2.1,2.7,4.3,2.7
			c1.8,0,3.4-0.7,3.4-2.4c0-3.7-9.7-1.6-9.7-7.8c0-3,2.6-5.1,6.1-5.1c2.8,0,5.1,1.3,6.2,3.6l-2.5,1.4c-0.7-1.6-2.2-2.2-3.7-2.2
			c-1.6,0-3.1,0.8-3.1,2.3C459.6,50.9,469.3,48.7,469.3,55z"/>
		<path class="st1" d="M480.7,57.4c2.4,0,4.1-1.1,5-2.5l2.6,1.5c-1.5,2.3-4.1,3.9-7.6,3.9c-5.6,0-9.3-3.9-9.3-9.1
			c0-5.1,3.7-9.1,9.1-9.1c5.2,0,8.6,4.3,8.6,9.1c0,0.4,0,0.9-0.1,1.3h-14.5C475.1,55.6,477.5,57.4,480.7,57.4z M474.5,49.9H486
			c-0.5-3.4-3-5-5.6-5C477.2,44.9,475,46.9,474.5,49.9z"/>
	</g>
</g>
<g>
	<defs>
		<circle id="SVGID_1_" cx="63.5" cy="63.9" r="61"/>
	</defs>
	<clipPath id="SVGID_2_">
		<use xlink:href="#SVGID_1_"  style="overflow:visible;"/>
	</clipPath>
	<g class="st2">
		<circle class="st3" cx="63.5" cy="63.9" r="61"/>
		<circle class="st3" cx="63.5" cy="63.9" r="61"/>
		<path class="st4" d="M78.2,96.6C78.2,96.7,78.2,96.7,78.2,96.6L78.2,96.6L78.2,96.6z"/>
		<circle class="st3" cx="63.5" cy="63.9" r="61"/>
		<polygon class="st5" points="132.7,54.9 81.7,85.9 60.2,91.6 42.5,83.1 35.9,65.9 42.9,47.5 59,37.3 65.1,30.8 47.5,-4.1 
			72.4,-7.2 140,13.3 		"/>
		<circle class="st3" cx="63.5" cy="63.9" r="61"/>
		<path class="st6" d="M63,26.8L47.7,38.6L38,50.1L33.7,62l2.2,14.4l13.2,15.2l7.5,3h15l10.3-2l27,42.5l-35,13l-31.5-3.5L3.7,112.1
			l-15.8-46.2l10.7-51.7c0,0,19.7-6.3,20.3-6.3c0.6,0,28.5-9.7,28.5-9.7L63,26.8z"/>
		<circle class="st3" cx="63.5" cy="63.9" r="61"/>
		<polygon class="st7" points="131.7,65.7 29.2,124.7 70.1,137.6 101.2,130.1 136.8,83.4 		"/>
		<path class="st1" d="M126.4,51.9l-27.2,16L75.3,82.3C71,84.6,66.5,86,63.6,86c-12.2,0-22-9.8-22-22c0-11.8,9.3-21.4,20.9-22
			l0.2,0.3l12.2,22.2c0.5,0.9,1.6,1.3,2.5,0.8l1.7-0.9l2.6,4.1l0,0l0.2,0.4c0.5,0.8,1.6,1.1,2.5,0.7h0.1l5.9-3
			c1-0.5,1.3-1.7,0.8-2.6l-2.4-4.5l2.2-1.1c1-0.5,1.3-1.7,0.8-2.6L78.2,31.3L64.7,6.7c-0.5-0.9-1.6-1.3-2.5-0.8l-2.3,1.2l-3.1-5.7
			c-0.4-0.8-1.3-1.2-2.2-0.9l-6.5,1.8C46.9,2.6,46.4,4,46.9,5l3.7,6.8l-1.9,1c-1,0.5-1.3,1.7-0.8,2.6L55.4,29
			c-15.9,3.7-27.7,18-27.7,34.9c0,19.8,16,35.8,35.8,35.8c5.2,0,10.3-0.7,14.6-3.1c0.5-0.3,0.9-0.5,0.9-0.5l5.2-3l48.4-27.7
			L126.4,51.9z"/>
		<g>
			<defs>
				<polygon id="SVGID_3_" points="131.7,65.7 29.2,124.7 70.1,137.6 101.2,130.1 136.8,83.4 				"/>
			</defs>
			<clipPath id="SVGID_4_">
				<use xlink:href="#SVGID_3_"  style="overflow:visible;"/>
			</clipPath>
			<g class="st8">
				<path class="st1" d="M59.8,122.3c-0.1-0.2,0.1-0.5,0.3-0.5c1.1-0.1,2.4-0.5,3.6-1.2c1.5-0.9,1.9-1.9,1.4-2.8
					c-0.5-0.9-1.5-1-3.5-0.6c-2.8,0.5-5.2,0.1-6.4-1.9c-1.4-2.4-0.4-5.4,2.9-7.4c1.4-0.8,2.7-1.2,3.7-1.4c0.2,0,0.4,0.1,0.5,0.3
					l0.6,2.2c0.1,0.2-0.1,0.5-0.3,0.5c-0.7,0.1-1.8,0.4-2.9,1c-1.4,0.8-1.7,1.9-1.3,2.6c0.5,0.9,1.5,0.8,3.8,0.5
					c3-0.5,5,0.1,6.1,2.1c1.4,2.4,0.8,5.5-3.1,7.7c-1.5,0.8-3.1,1.3-4.2,1.4c-0.2,0-0.4-0.1-0.4-0.3L59.8,122.3z"/>
				<path class="st1" d="M62.6,106.2c-0.1-0.2-0.1-0.4,0.1-0.5c0.9-0.7,2.1-1.6,3.9-2.6c2-1.2,3.6-1.6,5-1.4c1.3,0.2,2.6,1,3.4,2.4
					c0.8,1.4,1.1,2.8,0.7,4.1c-0.5,1.6-1.8,3.1-3.7,4.2l-0.7,0.4c-0.2,0.1-0.3,0.4-0.1,0.6l2.5,4.3c0.1,0.2,0,0.4-0.1,0.6l-2.5,1.4
					c-0.2,0.1-0.4,0-0.6-0.1L62.6,106.2z M69.2,110.2c0.1,0.2,0.4,0.3,0.6,0.1l0.7-0.4c1.7-1,2.3-2.5,1.4-3.9
					c-0.8-1.3-2.1-1.6-3.7-0.6c-0.4,0.2-0.7,0.5-1,0.6c-0.2,0.1-0.2,0.4-0.1,0.5C67.5,107.4,68.7,109.4,69.2,110.2z"/>
				<path class="st1" d="M80.5,109.6l1,3.6c0,0.2,0,0.4-0.2,0.5l-2.6,1.5c-0.2,0.1-0.5,0-0.6-0.3L74.3,99c0-0.2,0-0.4,0.2-0.5
					l3.7-2.1c0.2-0.1,0.4-0.1,0.5,0.1l12,11c0.2,0.2,0.2,0.5-0.1,0.7l-2.7,1.6c-0.2,0.1-0.4,0.1-0.5-0.1l-2.8-2.6
					c-0.1-0.1-0.3-0.1-0.5-0.1l-3.5,2.1C80.5,109.2,80.4,109.4,80.5,109.6z M82.1,105.1c0.2-0.1,0.3-0.5,0.1-0.7l-2.2-2.1
					c-0.7-0.7-1.6-1.6-2.3-2.3l0,0c0.3,1,0.7,2.2,0.9,3.1l0.8,3c0.1,0.3,0.4,0.4,0.6,0.3L82.1,105.1z"/>
				<path class="st1" d="M99,93.6c2.7,4.7,1.6,9.1-2.6,11.5c-4.2,2.4-8.5,0.7-10.9-3.3c-2.5-4.2-1.6-9,2.6-11.4
					C92.4,87.8,96.7,89.7,99,93.6z M88.8,99.8c1.6,2.8,4.1,4,6.2,2.7c2.2-1.3,2.2-4,0.6-6.8c-1.5-2.6-4-4.1-6.2-2.8
					C87.3,94.2,87.2,97,88.8,99.8z"/>
				<path class="st1" d="M111.8,88.6c-1.1-1.7-2.3-3.7-3.5-5.8l0,0c0.6,2.1,1.2,4.4,1.6,6.4l1.4,6.2c0,0.2,0,0.4-0.2,0.4l-2,1.1
					c-0.2,0.1-0.4,0.1-0.5-0.1l-4.5-4.4c-1.4-1.4-3.1-3.2-4.5-4.8l0,0c1.1,2,2.2,4.2,3.2,6l2.7,5.2c0.1,0.2,0,0.4-0.2,0.5l-2.2,1.3
					c-0.2,0.1-0.5,0-0.6-0.2l-7-14c-0.1-0.2,0-0.4,0.2-0.5l3.7-2.1c0.2-0.1,0.4-0.1,0.5,0.1l3.9,3.7c1.4,1.4,2.9,2.9,4.2,4.4l0.1,0
					c-0.6-1.9-1.2-4-1.6-5.9l-1.2-5.3c0-0.2,0-0.4,0.2-0.4l3.6-2.1c0.2-0.1,0.4-0.1,0.6,0.1l8.6,13c0.1,0.2,0.1,0.5-0.1,0.6
					l-2.4,1.4c-0.2,0.1-0.4,0.1-0.6-0.1L111.8,88.6z"/>
			</g>
		</g>
	</g>
</g>
</svg>
